<svg xmlns="http://www.w3.org/2000/svg" version="1.1" xmlns:xlink="http://www.w3.org/1999/xlink" xmlns:svgjs="http://svgjs.dev/svgjs" width="2000" height="1262" viewBox="0 0 2000 1262"><g transform="matrix(1,0,0,1,-1.2056878089234715,-0.012672431661485462)"><svg viewBox="0 0 396 250" data-background-color="#ffffff" preserveAspectRatio="xMidYMid meet" height="1262" width="2000" xmlns="http://www.w3.org/2000/svg" xmlns:xlink="http://www.w3.org/1999/xlink"><g id="tight-bounds" transform="matrix(1,0,0,1,0.24054369502400164,0.002510386620741656)"><svg viewBox="0 0 395.5199999999999 249.99497922675852" height="249.99497922675852" width="395.5199999999999"><g><svg viewBox="0 0 395.5199999999999 249.99497922675852" height="249.99497922675852" width="395.5199999999999"><g><svg viewBox="0 0 395.5199999999999 249.99497922675852" height="249.99497922675852" width="395.5199999999999"><g id="textblocktransform"><svg viewBox="0 0 395.5199999999999 249.99497922675852" height="249.99497922675852" width="395.5199999999999" id="textblock"><g><svg viewBox="0 0 395.5199999999999 249.99497922675852" height="249.99497922675852" width="395.5199999999999"><g transform="matrix(1,0,0,1,0,0)"><svg width="395.5199999999999" viewBox="28.025210000000005 -6.8791899999999995 45.69947468207589 28.885121889370495" height="249.99497922675852" data-palette-color="#2257bf"><path d="M48.882-0.927l4.655 0.219-11.936 21.661c-0.19 0.338-0.459 0.602-0.808 0.793-0.343 0.191-0.717 0.276-1.123 0.257v0c-0.393-0.019-0.754-0.139-1.085-0.361-0.33-0.222-0.577-0.511-0.74-0.866v0l-9.82-22.689 4.665 0.221 7.299 16.943zM68.539-5.935l4.134-0.944 1.051 21.895c0.011 0.435-0.096 0.836-0.321 1.202-0.223 0.372-0.532 0.648-0.929 0.827v0c-0.413 0.169-0.827 0.213-1.242 0.13-0.421-0.075-0.782-0.266-1.085-0.573v0l-10.242-10.534-4.664 13.939c-0.112 0.347-0.303 0.637-0.571 0.869-0.267 0.239-0.579 0.399-0.936 0.48v0c-0.487 0.111-0.955 0.054-1.404-0.172-0.448-0.226-0.772-0.579-0.97-1.06v0l-8.587-20.175 4.133-0.944 6.075 14.204 4.079-11.691c0.106-0.346 0.292-0.638 0.559-0.877 0.275-0.234 0.588-0.391 0.939-0.471v0c0.357-0.082 0.704-0.075 1.04 0.019 0.344 0.099 0.648 0.279 0.913 0.54v0l8.722 8.769z" opacity="1" transform="matrix(1,0,0,1,0,0)" fill="#2257bf" class="wordmark-text-0" data-fill-palette-color="primary" id="text-0"></path></svg></g></svg></g></svg></g></svg></g><g></g></svg></g><defs></defs></svg><rect width="395.5199999999999" height="249.99497922675852" fill="none" stroke="none" visibility="hidden"></rect></g></svg></g></svg>